<?xml version="1.0" encoding="utf-8"?>
<!-- Generator: Adobe Illustrator 16.0.4, SVG Export Plug-In . SVG Version: 6.00 Build 0)  -->
<!DOCTYPE svg PUBLIC "-//W3C//DTD SVG 1.1//EN" "http://www.w3.org/Graphics/SVG/1.1/DTD/svg11.dtd">
<svg version="1.1" id="Layer_1" xmlns="http://www.w3.org/2000/svg" xmlns:xlink="http://www.w3.org/1999/xlink" x="0px" y="0px"
	 width="638.667px" height="195.334px" viewBox="0 0 638.667 195.334" enable-background="new 0 0 638.667 195.334"
	 xml:space="preserve">
<g id="Investing">
</g>
<g id="CapitalOne">
	<g>
		<g>
			<path fill="#FFFFFF" d="M400.927,111.815h6.195v3.318h0.098c2.053-2.798,4.83-3.888,8.246-3.888c5.953,0,8.539,4.078,8.539,9.581
				v15.415h-6.539v-13.044c0-2.989-0.049-7.02-4.244-7.02c-4.73,0-5.758,4.98-5.758,8.11v11.952h-6.537V111.815L400.927,111.815z"/>
			<path fill="#FFFFFF" d="M424.501,111.815h7.029l6.238,17.787h0.102l6.047-17.787h6.541l-9.271,24.428h-7.367L424.501,111.815z"/>
			<path fill="#FFFFFF" d="M471.353,134.869c-2.389,1.278-5.119,1.942-8.637,1.942c-8.291,0-13.123-4.646-13.123-12.664
				c0-7.065,3.854-12.9,11.662-12.9c9.316,0,11.951,6.212,11.951,14.753h-17.369c0.293,3.937,3.125,6.165,7.172,6.165
				c3.174,0,5.906-1.141,8.344-2.466V134.869z M466.964,121.632c-0.197-3.082-1.662-5.736-5.32-5.736s-5.514,2.467-5.807,5.736
				H466.964z"/>
			<path fill="#FFFFFF" d="M491.55,116.938c-1.998-0.664-3.463-1.043-5.855-1.043c-1.754,0-3.855,0.615-3.855,2.703
				c0,3.891,11.371,1.422,11.371,10.245c0,5.691-5.223,7.97-10.539,7.97c-2.488,0-5.027-0.429-7.416-1.043l0.389-5.22
				c2.051,0.994,4.197,1.614,6.439,1.614c1.658,0,4.293-0.62,4.293-2.988c0-4.792-11.365-1.52-11.365-10.344
				c0-5.262,4.732-7.586,9.855-7.586c3.072,0,5.072,0.475,7.121,0.898L491.55,116.938z"/>
			<path fill="#FFFFFF" d="M499.97,136.243v-19.779h-4.832v-4.646h4.832v-4.889l6.535-2.037v6.926h5.809v4.646h-5.809v19.779H499.97
				z"/>
			<path fill="#FFFFFF" d="M515.736,111.815h6.539v24.428h-6.539V111.815z M522.275,107.226c0,1.291-1.453,2.336-3.244,2.336
				c-1.789,0-3.24-1.045-3.24-2.336c0-1.289,1.451-2.334,3.24-2.334C520.822,104.892,522.275,105.937,522.275,107.226z"/>
			<path fill="#FFFFFF" d="M526.699,111.815h6.195v3.318h0.098c2.051-2.798,4.832-3.888,8.248-3.888
				c5.951,0,8.535,4.078,8.535,9.581v15.415h-6.537v-13.044c0-2.989-0.047-7.02-4.246-7.02c-4.73,0-5.756,4.98-5.756,8.11v11.952
				h-6.537V111.815L526.699,111.815z"/>
			<path fill="#FFFFFF" d="M577.001,111.815v22.056c0,6.642-2.732,12.901-13.27,12.901c-2.586,0-5.562-0.379-8.686-1.66l0.535-5.404
				c2,1.04,5.271,2.133,7.32,2.133c7.221,0,7.562-5.265,7.562-9.486h-0.098c-1.221,2.086-4.146,3.89-7.809,3.89
				c-7.416,0-10.242-5.787-10.242-12.333c0-5.88,3.119-12.663,10.635-12.663c3.316,0,5.902,1.09,7.709,3.888h0.096v-3.318h6.246
				V111.815z M570.464,123.769c0-4.174-1.66-7.588-5.465-7.588c-4.439,0-5.855,3.985-5.855,7.729c0,3.319,1.809,7.399,5.564,7.399
				C568.804,131.31,570.464,127.849,570.464,123.769z"/>
			<path fill="#FFFFFF" d="M396.9,136.243h-6.538v-33.108h6.538V136.243z"/>
		</g>
		<g>
			<path fill="#D12E32" d="M263.076,124.288c-0.014,0.013-0.029,0.021-0.044,0.031c-14.146,10.016-30.904,20.535-48.931,31.574
				l-0.711,0.416c-0.241,0.172-0.303,0.502-0.128,0.75c0.168,0.242,0.503,0.301,0.746,0.129l0.601-0.316
				c15.289-7.979,32.85-17.452,50.521-27.17c0.096-0.053,0.188-0.105,0.283-0.157C264.44,127.953,263.644,126.206,263.076,124.288z
				 M355.928,49.124c-22.3-24.596-165.783-2.472-226.801,10.857l-1.421,0.308c-0.293,0.052-0.488,0.333-0.439,0.624
				c0.052,0.295,0.33,0.49,0.625,0.44l1.411-0.275c50.552-9,155.68-21.48,178.302,0.951c6.902,6.842,5.255,15.66-2.745,26.06
				c4.315,2.772,7.387,7.131,8.77,12.586C344.871,79.892,365.862,60.082,355.928,49.124z"/>
			<g id="Wordmark">
				<path fill="#FFFFFF" d="M272.1,117.83c0.289,8.655,5.761,15.739,12.905,15.739c13.839,0,19.73-16.99,19.32-28.346
					c-0.292-8.676-5.911-15.748-13.042-15.748C279.378,89.477,271.694,106.397,272.1,117.83z M264.788,117.366
					c-0.513-14.768,11.059-29.87,27.865-29.87c11.242,0,18.599,7.491,19.009,18.962c0.538,15.576-10.27,29.875-27.865,29.875
					C272.554,136.333,265.197,128.856,264.788,117.366z"/>
				<path fill="#FFFFFF" d="M105.576,113.465c-0.602,0.226-1.376,0.451-2.338,0.652c-0.958,0.216-2.712,0.526-5.258,0.93
					c-1.753,0.274-2.969,0.642-3.663,1.14c-0.663,0.492-1.053,1.076-1.166,1.791c-0.137,0.763,0.112,1.371,0.773,1.848
					c0.671,0.469,1.797,0.711,3.387,0.711c1.19,0,2.359-0.193,3.491-0.555c1.145-0.375,2.107-0.885,2.852-1.515
					c0.544-0.471,0.935-1.069,1.226-1.788C105.049,116.206,105.291,115.142,105.576,113.465z M120.187,104.379
					c-0.061,1.356-0.293,2.546-0.657,4.62l-2.474,13.875c-0.212,1.229,0.245,2.199,1.39,2.859l-0.076,0.543l-14.154-0.021
					l-0.128-3.527c-2.061,1.244-4.548,2.293-6.799,2.906c-2.242,0.575-4.058,0.831-6.782,0.831c-4.572,0-7.192-0.475-8.997-2.059
					c-1.838-1.638-2.727-2.72-2.639-4.968c0.07-1.295,0.74-2.955,1.711-4.117c0.98-1.182,2.314-1.951,3.767-2.633
					c1.46-0.695,3.178-1.198,5.679-1.594c2.504-0.408,5.989-0.812,10.659-1.201c2.453-0.205,3.948-0.773,4.651-1.053
					c0.975-0.379,1.356-0.798,1.501-1.592c0.261-1.428-0.195-2.239-2.087-2.616c-5.101-1.003-14.656,0.648-19.583,1.882l2.678-7.222
					c6.496-0.948,12.586-1.555,18.994-1.555C117.027,97.739,120.289,100.646,120.187,104.379z"/>
				<path fill="#FFFFFF" d="M161.212,126.276l4.913-27.723h13.551l-4.911,27.723H161.212z M166.875,92.134
					c0.405-2.278,4.002-4.128,8.02-4.128c4.025,0,6.963,1.85,6.574,4.128c-0.424,2.28-4.014,4.127-8.042,4.127
					C169.389,96.261,166.467,94.415,166.875,92.134z"/>
				<path fill="#FFFFFF" d="M227.804,113.532c-0.607,0.207-1.395,0.431-2.351,0.65c-0.95,0.228-2.705,0.508-5.266,0.926
					c-1.742,0.276-2.979,0.645-3.648,1.143c-0.65,0.477-1.037,1.068-1.175,1.782c-0.143,0.767,0.138,1.385,0.774,1.844
					c0.684,0.472,1.818,0.7,3.41,0.7c1.18,0,2.337-0.176,3.476-0.534c1.155-0.387,2.116-0.879,2.865-1.517
					c0.521-0.471,0.922-1.082,1.205-1.801C227.268,116.263,227.504,115.194,227.804,113.532z M242.41,104.433
					c-0.056,1.36-0.296,2.561-0.669,4.615l-2.454,13.893c-0.214,1.224,0.24,2.188,1.379,2.869l-0.083,0.479l-14.149,0.028
					l-0.109-3.536c-2.068,1.253-4.57,2.295-6.804,2.901c-2.253,0.594-4.067,0.834-6.807,0.834c-4.567,0-7.167-0.457-8.979-2.053
					c-1.845-1.641-2.736-2.717-2.637-4.96c0.05-1.303,0.73-2.976,1.706-4.119c0.98-1.194,2.316-1.95,3.777-2.636
					c1.459-0.688,3.186-1.195,5.656-1.609c2.517-0.39,6.014-0.812,10.679-1.201c2.431-0.205,3.927-0.758,4.625-1.024
					c0.988-0.382,1.377-0.81,1.523-1.606c0.251-1.398-0.196-2.232-2.077-2.613c-5.125-1.012-14.656,0.649-19.581,1.873l2.663-7.217
					c6.522-0.953,12.581-1.562,18.998-1.562C239.245,97.788,242.493,100.707,242.41,104.433z"/>
				<path fill="#FFFFFF" d="M77.019,116.312c-4.411,0.875-6.893,1.211-11.254,1.211c-6.475,0-11.617-3.213-11.339-9.105
					c0.197-3.923,4.848-12.206,16.661-12.206c3.717,0,6.624,0.659,10.534,2.888l1.715-9.63c-5.315-2.01-8.835-2.311-13.398-2.261
					c-15.478,0.166-30.356,7.208-32.197,21.52c-1.876,14.543,15.888,18.2,23.774,18.168c4.555-0.015,9.287-0.199,13.707-0.658
					L77.019,116.312z"/>
				<path fill="#FFFFFF" d="M187.144,98.394l0.974-5.644l14.174-3.085l-1.509,8.729h6.941l-1.318,5.584l-6.733-0.015l-4.091,22.293
					c0,0-13.646-0.09-13.695,0l4.074-22.239h-5.152l1.045-5.623H187.144z"/>
				<polygon fill="#FFFFFF" points="256.167,126.256 242.365,126.276 249.307,87.598 262.753,87.977 				"/>
				<path fill="#FFFFFF" d="M143.288,105.052c-1.775,0-3.383,0.535-4.812,1.613c-1.415,1.08-2.316,2.65-2.681,4.747
					c-0.426,2.42-0.177,4.155,0.781,5.231c0.969,1.062,2.361,1.6,4.19,1.6c1.231,0,2.51-0.221,3.449-0.686
					c1.159-0.613,1.96-1.263,2.652-2.279c0.748-1.076,1.238-2.271,1.49-3.659c0.388-2.188,0.06-3.83-0.956-4.91
					C146.416,105.599,145.055,105.052,143.288,105.052z M118.613,135.849l6.595-37.156h11.901l-0.922,4.742
					c1.034-1.416,2.684-2.578,4.959-3.526c2.297-0.939,4.881-1.636,7.688-1.636c3.105,0,5.021,0.166,7.346,1.371
					c2.312,1.213,3.922,2.969,4.801,5.26c0.892,2.255,1.078,4.789,0.594,7.549c-0.804,4.578-3.039,8.189-6.698,10.844
					c-3.634,2.651-6.9,3.35-11.569,3.366c-1.654,0-3.036-0.172-4.184-0.452c-1.123-0.293-2.016-0.648-2.699-1.083
					c-0.651-0.438-1.342-1.044-2.232-2.017l-2.216,12.736h-13.364V135.849z"/>
				<path fill="#FFFFFF" d="M364.639,108.455c-0.076-2.236-1.199-3.737-3.507-3.737c-5.559,0-11.469,10.889-12.489,15.278
					C357.762,119.996,364.86,114.563,364.639,108.455z M365.83,125.521l1.073,0.728c-2.711,5.521-8.237,9.964-14.722,9.964
					c-5.305,0-9.65-3.529-9.883-10.16c-0.428-11.882,10.703-22.921,19.822-22.921c3.91,0,7.535,1.709,7.696,5.918
					c0.336,9.449-12.933,12.339-21.674,12.536c-0.284,0.984-0.392,1.979-0.34,3.489c0.146,3.918,2.517,7.215,7.416,7.215
					C359.455,132.288,363.689,128.878,365.83,125.521z"/>
				<path fill="#FFFFFF" d="M311.462,108.144c0.941-0.125,2.457-0.291,3.111-0.291c0.999,0,1.935,0.188,1.981,1.174
					c0.019,0.588-1.039,4.795-1.262,5.772l-2.113,9.32c-0.853,3.813-1.779,7.808-2.6,10.963h5.43l3.052-14.765
					c9.313-9.701,12.897-12.864,15.099-12.864c0.986,0,1.67,0.519,1.717,1.703c0.055,1.708-1.002,5.584-1.371,6.694l-3.115,10.771
					c-0.707,2.42-1.23,4.603-1.184,6.161c0.096,2.365,1.524,3.414,3.646,3.414c3.969,0,6.848-4.135,9.367-8.197l-0.737-1.334
					c-1.021,1.635-3.372,5.201-5.229,5.201c-0.588,0-1.141-0.393-1.16-1.376c-0.057-1.261,0.477-3.14,0.842-4.39l3.46-12.615
					c0.927-3.477,1.372-5.711,1.351-6.901c-0.088-2.356-1.464-3.457-3.57-3.457c-3.569,0-8.317,2.608-18.36,14.171h-0.144
					l1.265-5.643c0.687-3.086,1.356-6.305,2.01-8.528c-3.473,1.252-8.453,2.651-11.531,3.247L311.462,108.144z"/>
			</g>
		</g>
		<g>
			<path fill="#FFFFFF" d="M586.367,102.633c-0.072-1.682-1.467-2.21-2.697-2.21c-0.926,0-2.484,0.258-2.484,1.908
				c0,0.923,0.65,1.229,1.289,1.38l3.105,0.712c1.412,0.334,2.473,1.182,2.473,2.909c0,2.575-2.396,3.288-4.26,3.288
				c-2.016,0-2.807-0.604-3.287-1.044c-0.926-0.835-1.107-1.745-1.107-2.761h1.379c0,1.971,1.604,2.547,3,2.547
				c1.061,0,2.848-0.272,2.848-1.834c0-1.135-0.527-1.5-2.316-1.926l-2.227-0.516c-0.715-0.165-2.32-0.665-2.32-2.561
				c0-1.697,1.107-3.364,3.744-3.364c3.805,0,4.182,2.272,4.244,3.47L586.367,102.633L586.367,102.633z"/>
			<path fill="#FFFFFF" d="M598.867,110.332v-6.425c0-0.319,0.027-1.697,0.027-2.711h-0.027l-3.064,9.136h-1.453l-3.061-9.123
				h-0.033c0,1.001,0.033,2.379,0.033,2.698v6.425h-1.424V99.451h2.104l3.105,9.198h0.029l3.094-9.198h2.092v10.881H598.867z"/>
		</g>
	</g>
</g>
</svg>
